<svg width="20" height="23" viewBox="0 0 20 23" fill="none" xmlns="http://www.w3.org/2000/svg">
<path d="M4.20179 14.067C4.20179 15.2232 3.25714 16.1679 2.10089 16.1679C0.944643 16.1679 0 15.2232 0 14.067C0 12.9107 0.944643 11.9661 2.10089 11.9661H4.20179V14.067ZM5.26071 14.067C5.26071 12.9107 6.20536 11.9661 7.36161 11.9661C8.51786 11.9661 9.4625 12.9107 9.4625 14.067V19.3277C9.4625 20.4839 8.51786 21.4286 7.36161 21.4286C6.20536 21.4286 5.26071 20.4839 5.26071 19.3277V14.067ZM7.36161 5.63036C6.20536 5.63036 5.26071 4.68572 5.26071 3.52947C5.26071 2.37322 6.20536 1.42857 7.36161 1.42857C8.51786 1.42857 9.4625 2.37322 9.4625 3.52947V5.63036H7.36161V5.63036ZM7.36161 6.68929C8.51786 6.68929 9.4625 7.63393 9.4625 8.79018C9.4625 9.94643 8.51786 10.8911 7.36161 10.8911H2.10089C0.944643 10.8911 0 9.94643 0 8.79018C0 7.63393 0.944643 6.68929 2.10089 6.68929H7.36161V6.68929ZM15.7982 8.79018C15.7982 7.63393 16.7429 6.68929 17.8991 6.68929C19.0554 6.68929 20 7.63393 20 8.79018C20 9.94643 19.0554 10.8911 17.8991 10.8911H15.7982V8.79018V8.79018ZM14.7393 8.79018C14.7393 9.94643 13.7946 10.8911 12.6384 10.8911C11.4821 10.8911 10.5375 9.94643 10.5375 8.79018V3.52947C10.5375 2.37322 11.4821 1.42857 12.6384 1.42857C13.7946 1.42857 14.7393 2.37322 14.7393 3.52947V8.79018V8.79018ZM12.6384 17.2268C13.7946 17.2268 14.7393 18.1714 14.7393 19.3277C14.7393 20.4839 13.7946 21.4286 12.6384 21.4286C11.4821 21.4286 10.5375 20.4839 10.5375 19.3277V17.2268H12.6384ZM12.6384 16.1679C11.4821 16.1679 10.5375 15.2232 10.5375 14.067C10.5375 12.9107 11.4821 11.9661 12.6384 11.9661H17.8991C19.0554 11.9661 20 12.9107 20 14.067C20 15.2232 19.0554 16.1679 17.8991 16.1679H12.6384Z" fill="black"/>
</svg>
